<?xml version="1.0" encoding="UTF-8" standalone="no"?>
<!DOCTYPE svg PUBLIC "-//W3C//DTD SVG 1.1//EN" "http://www.w3.org/Graphics/SVG/1.1/DTD/svg11.dtd">
<svg width="100%" height="100%" viewBox="0 0 1600 1200" version="1.1" xmlns="http://www.w3.org/2000/svg" xmlns:xlink="http://www.w3.org/1999/xlink" xml:space="preserve" xmlns:serif="http://www.serif.com/" style="fill-rule:evenodd;clip-rule:evenodd;stroke-linejoin:round;stroke-miterlimit:1.5;">
    <g transform="matrix(2.94784,0,0,2.94784,-1538.06,-1160.19)">
        <g transform="matrix(0.563739,0.563739,-0.563739,0.563739,671.409,136.936)">
            <path d="M497.927,165.901L379.119,163.096L381.818,281.963L497.044,280.991L497.927,165.901Z" style="stroke:black;stroke-width:1.49px;"/>
        </g>
        <g transform="matrix(0.563739,0.563739,-0.563739,0.563739,594.054,210.188)">
            <path d="M491.765,167.522L385.504,168.463L375.167,341.513L491.765,167.522Z" style="stroke:black;stroke-width:1.49px;"/>
        </g>
        <g transform="matrix(0.339231,0,0,0.339231,521.758,393.574)">
            <path d="M1334.83,1164.83L1334.83,1055.18L264.312,1055.18L264.312,1164.83L1334.83,1164.83ZM1082.78,1138.17C1080.39,1138.17 1078.04,1137.98 1075.74,1137.61C1073.43,1137.23 1071.21,1136.68 1069.07,1135.95C1066.92,1135.22 1064.91,1134.37 1063.02,1133.39C1061.13,1132.41 1059.43,1131.32 1057.93,1130.11L1070.02,1118.21C1071.41,1119.57 1073.26,1120.77 1075.57,1121.83C1077.88,1122.88 1080.25,1123.41 1082.7,1123.41C1083.81,1123.41 1084.83,1123.24 1085.74,1122.88C1086.66,1122.53 1087.12,1121.88 1087.12,1120.92C1087.12,1120.42 1086.97,1120 1086.66,1119.64C1086.36,1119.29 1085.81,1118.93 1085.04,1118.55C1084.26,1118.18 1083.19,1117.76 1081.82,1117.31C1080.46,1116.86 1078.75,1116.33 1076.7,1115.73C1074.69,1115.13 1072.78,1114.41 1070.94,1113.58C1069.11,1112.75 1067.48,1111.74 1066.06,1110.53C1064.64,1109.33 1063.52,1107.88 1062.69,1106.2C1061.85,1104.52 1061.43,1102.5 1061.43,1100.14C1061.43,1096.82 1062.18,1094.01 1063.69,1091.7C1065.19,1089.39 1067.12,1087.5 1069.48,1086.02C1071.85,1084.54 1074.5,1083.47 1077.45,1082.82C1080.39,1082.16 1083.31,1081.84 1086.2,1081.84C1090.09,1081.84 1094.06,1082.51 1098.09,1083.87C1102.12,1085.22 1105.66,1087.18 1108.72,1089.74L1096.38,1101.12C1095.04,1099.61 1093.4,1098.47 1091.46,1097.69C1089.51,1096.91 1087.76,1096.52 1086.2,1096.52C1084.76,1096.52 1083.59,1096.71 1082.7,1097.09C1081.81,1097.46 1081.37,1098.08 1081.37,1098.93C1081.37,1099.74 1081.82,1100.34 1082.74,1100.74C1083.66,1101.14 1085.15,1101.64 1087.2,1102.25C1089.32,1102.85 1091.54,1103.55 1093.87,1104.36C1096.21,1105.16 1098.36,1106.2 1100.34,1107.48C1102.31,1108.76 1103.94,1110.33 1105.22,1112.19C1106.49,1114.05 1107.13,1116.36 1107.13,1119.12C1107.13,1122.33 1106.42,1125.13 1105.01,1127.52C1103.59,1129.9 1101.73,1131.88 1099.42,1133.46C1097.11,1135.05 1094.51,1136.23 1091.62,1137.01C1088.73,1137.78 1085.79,1138.17 1082.78,1138.17ZM1267.91,1138.17C1265.52,1138.17 1263.17,1137.98 1260.87,1137.61C1258.56,1137.23 1256.34,1136.68 1254.2,1135.95C1252.06,1135.22 1250.04,1134.37 1248.15,1133.39C1246.26,1132.41 1244.56,1131.32 1243.06,1130.11L1255.15,1118.21C1256.55,1119.57 1258.39,1120.77 1260.7,1121.83C1263.01,1122.88 1265.38,1123.41 1267.83,1123.41C1268.94,1123.41 1269.96,1123.24 1270.87,1122.88C1271.79,1122.53 1272.25,1121.88 1272.25,1120.92C1272.25,1120.42 1272.1,1120 1271.79,1119.64C1271.49,1119.29 1270.94,1118.93 1270.17,1118.55C1269.39,1118.18 1268.32,1117.76 1266.95,1117.31C1265.59,1116.86 1263.88,1116.33 1261.83,1115.73C1259.83,1115.13 1257.91,1114.41 1256.07,1113.58C1254.24,1112.75 1252.61,1111.74 1251.19,1110.53C1249.78,1109.33 1248.65,1107.88 1247.82,1106.2C1246.98,1104.52 1246.57,1102.5 1246.57,1100.14C1246.57,1096.82 1247.32,1094.01 1248.82,1091.7C1250.32,1089.39 1252.25,1087.5 1254.61,1086.02C1256.98,1084.54 1259.63,1083.47 1262.58,1082.82C1265.52,1082.16 1268.44,1081.84 1271.33,1081.84C1275.23,1081.84 1279.19,1082.51 1283.22,1083.87C1287.25,1085.22 1290.79,1087.18 1293.85,1089.74L1281.51,1101.12C1280.17,1099.61 1278.53,1098.47 1276.59,1097.69C1274.64,1096.91 1272.89,1096.52 1271.33,1096.52C1269.89,1096.52 1268.72,1096.71 1267.83,1097.09C1266.94,1097.46 1266.5,1098.08 1266.5,1098.93C1266.5,1099.74 1266.95,1100.34 1267.87,1100.74C1268.79,1101.14 1270.28,1101.64 1272.33,1102.25C1274.45,1102.85 1276.67,1103.55 1279.01,1104.36C1281.34,1105.16 1283.49,1106.2 1285.47,1107.48C1287.44,1108.76 1289.07,1110.33 1290.35,1112.19C1291.62,1114.05 1292.26,1116.36 1292.26,1119.12C1292.26,1122.33 1291.56,1125.13 1290.14,1127.52C1288.72,1129.9 1286.86,1131.88 1284.55,1133.46C1282.24,1135.05 1279.64,1136.23 1276.75,1137.01C1273.86,1137.78 1270.92,1138.17 1267.91,1138.17ZM1010.73,1136.67L1010.73,1083.34L990.718,1083.34L990.718,1136.67L1010.73,1136.67ZM638.136,1098.26L638.136,1083.34L597.524,1083.34L597.524,1136.67L639.553,1136.67L639.553,1121.75L616.203,1121.75L616.203,1116.78L636.801,1116.78L636.801,1102.85L616.203,1102.85L616.203,1098.26L638.136,1098.26ZM346.763,1098.26L346.763,1083.34L306.151,1083.34L306.151,1136.67L348.181,1136.67L348.181,1121.75L324.831,1121.75L324.831,1116.78L345.429,1116.78L345.429,1102.85L324.831,1102.85L324.831,1098.26L346.763,1098.26ZM1197.2,1098.26L1197.2,1083.34L1156.59,1083.34L1156.59,1136.67L1198.62,1136.67L1198.62,1121.75L1175.27,1121.75L1175.27,1116.78L1195.86,1116.78L1195.86,1102.85L1175.27,1102.85L1175.27,1098.26L1197.2,1098.26ZM549.74,1098.48L549.74,1083.34L500.872,1083.34L500.872,1098.48L515.382,1098.48L515.382,1136.67L535.23,1136.67L535.23,1098.48L549.74,1098.48ZM816.095,1119.49C819.153,1119.49 822.141,1119.17 825.059,1118.52C827.978,1117.86 830.563,1116.81 832.815,1115.35C835.066,1113.9 836.873,1112.01 838.235,1109.7C839.597,1107.39 840.278,1104.58 840.278,1101.27C840.278,1097.8 839.584,1094.93 838.194,1092.64C836.804,1090.36 834.969,1088.53 832.69,1087.15C830.41,1085.77 827.825,1084.79 824.934,1084.21C822.043,1083.63 819.097,1083.34 816.095,1083.34L790.743,1083.34L790.743,1136.67L810.507,1136.67L810.507,1119.49L816.095,1119.49ZM943.435,1136.67L928.424,1115.05C931.76,1113.69 934.317,1111.77 936.096,1109.29C937.875,1106.8 938.765,1103.93 938.765,1100.66C938.765,1097.3 938.07,1094.5 936.68,1092.27C935.29,1090.03 933.469,1088.25 931.218,1086.92C928.966,1085.59 926.409,1084.66 923.546,1084.13C920.682,1083.61 917.805,1083.34 914.915,1083.34L889.48,1083.34L889.48,1136.67L908.66,1136.67L908.66,1117.61L909.244,1117.61L920.585,1136.67L943.435,1136.67ZM743.46,1136.67L728.449,1115.05C731.785,1113.69 734.342,1111.77 736.122,1109.29C737.901,1106.8 738.79,1103.93 738.79,1100.66C738.79,1097.3 738.095,1094.5 736.705,1092.27C735.315,1090.03 733.495,1088.25 731.243,1086.92C728.991,1085.59 726.434,1084.66 723.571,1084.13C720.708,1083.61 717.831,1083.34 714.94,1083.34L689.505,1083.34L689.505,1136.67L708.685,1136.67L708.685,1117.61L709.269,1117.61L720.611,1136.67L743.46,1136.67ZM453.088,1136.67L453.088,1083.34L434.242,1083.34L435.075,1110.38L434.742,1110.38L417.897,1083.34L398.133,1083.34L398.133,1136.67L416.979,1136.67L416.145,1111.21L416.479,1111.21L432.824,1136.67L453.088,1136.67ZM814.677,1097.28C815.4,1097.28 816.123,1097.34 816.845,1097.46C817.568,1097.59 818.221,1097.8 818.805,1098.1C819.389,1098.41 819.847,1098.82 820.181,1099.35C820.514,1099.87 820.681,1100.57 820.681,1101.42C820.681,1103.03 820.056,1104.17 818.805,1104.85C817.554,1105.52 816.178,1105.86 814.677,1105.86L810.507,1105.86L810.507,1097.28L814.677,1097.28ZM913.247,1097.28C913.858,1097.28 914.525,1097.31 915.248,1097.39C915.971,1097.46 916.638,1097.64 917.25,1097.92C917.861,1098.19 918.361,1098.61 918.751,1099.16C919.14,1099.71 919.334,1100.46 919.334,1101.42C919.334,1102.37 919.098,1103.14 918.625,1103.71C918.153,1104.29 917.569,1104.75 916.874,1105.07C916.179,1105.4 915.429,1105.61 914.623,1105.71C913.817,1105.81 913.08,1105.86 912.413,1105.86L908.493,1105.86L908.493,1097.28L913.247,1097.28ZM713.272,1097.28C713.884,1097.28 714.551,1097.31 715.273,1097.39C715.996,1097.46 716.663,1097.64 717.275,1097.92C717.886,1098.19 718.387,1098.61 718.776,1099.16C719.165,1099.71 719.36,1100.46 719.36,1101.42C719.36,1102.37 719.123,1103.14 718.651,1103.71C718.178,1104.29 717.595,1104.75 716.9,1105.07C716.205,1105.4 715.454,1105.61 714.648,1105.71C713.842,1105.81 713.105,1105.86 712.438,1105.86L708.519,1105.86L708.519,1097.28L713.272,1097.28Z"/>
        </g>
        <g transform="matrix(-0.563739,0.563739,0.563739,0.563739,991.12,210.314)">
            <path d="M491.765,167.522L385.504,168.463L375.167,341.513L491.765,167.522Z" style="stroke:black;stroke-width:1.49px;"/>
        </g>
        <g transform="matrix(1,0,0,1,401.218,290.55)">
            <path d="M125.549,339.473L200.597,302.26L391.754,114.955L586.575,303.615L658.301,333.099" style="fill:none;stroke:black;stroke-width:20.69px;"/>
        </g>
        <g transform="matrix(5.9951,0,0,5.9951,-1107.04,-1862.95)">
            <path d="M291.582,434.1L288.726,434.1L288.717,418.882L286.638,418.331L286.638,415.919L293.661,417.628L293.661,420.04L291.573,419.555L291.582,434.1Z" style="fill-rule:nonzero;"/>
        </g>
        <g transform="matrix(5.9951,0,0,10.9672,-1106.98,-4021.36)">
            <path d="M294.545,425.214L297.426,425.595L297.426,434.1L294.546,434.1L294.545,425.214Z" style="fill-rule:nonzero;"/>
        </g>
        <g transform="matrix(4.77146,0,0,10.2114,-743.786,-3693.27)">
            <path d="M301.542,429.3L301.674,434.1L299.01,434.1L299.01,425.13L302.742,425.553L304.278,430.176L304.338,430.176L305.834,425.904L309.522,426.323L309.522,434.1L306.75,434.1L306.834,429.324L306.762,429.312L305.178,434.1L303.162,434.1L301.602,429.3L301.542,429.3Z" style="fill-rule:nonzero;"/>
        </g>
        <g transform="matrix(5.9951,0,0,7.21084,-1125.76,-2391.23)">
            <path d="M311.118,423.372L316.95,424.55L316.939,426.66L313.722,426.286L313.794,428.309L316.758,428.401L316.758,430.465L313.695,430.414L313.713,431.818L317.154,431.796L317.154,434.172L311.106,434.172L311.118,423.372Z" style="fill-rule:nonzero;"/>
        </g>
        <g transform="matrix(5.9951,0,0,5.9951,-1113.61,-1863.8)">
            <path d="M345.138,434.242L342.282,434.242L342.282,419.818L339.36,420.506L339.413,418.321L347.727,416.362L347.724,418.539L345.108,419.162L345.138,434.242Z" style="fill-rule:nonzero;"/>
        </g>
        <g transform="matrix(0.663188,0,0,1,536.822,292.183)">
            <path d="M468.23,385.697C468.23,382.115 465.321,378.042 461.739,378.042L431.203,382.772C427.62,382.772 424.712,386.844 424.712,390.426L424.712,432.84C424.712,433.737 424.895,436.454 425.224,437.231C426.211,439.558 428.518,439.33 431.203,439.33L461.739,439.33C465.321,439.33 468.23,436.422 468.23,432.84L468.23,385.697Z" style="fill-opacity:0;stroke:black;stroke-width:18.39px;"/>
        </g>
        <g transform="matrix(1,0,0,1,392.076,291.822)">
            <path d="M504.214,431.698L504.274,358.347L520.214,354.605L520.214,439.698C520.214,439.698 519.851,443.5 517.69,445.529C516.468,446.677 514.879,447.424 513.216,447.634C512.773,447.691 512.802,447.679 512.214,447.698L478.605,447.698C477.061,447.649 476.805,447.524 476.133,447.306C473.267,446.375 471.048,443.709 470.668,440.7C470.612,440.257 470.619,440.144 470.605,439.698L470.605,366.084L486.605,362.44L486.605,431.698C494.141,431.698 496.678,431.698 504.214,431.698Z" style="fill-rule:nonzero;"/>
        </g>
    </g>
</svg>
